# Blender v2.79 (sub 0) OBJ File: 'map_example_2.blend'
# www.blender.org
mtllib map_example.mtl
v -25.000000 -0.200000 25.000000
v -3.356267 0.200000 3.356267
v -25.000000 -0.200000 -25.000000
v -3.356267 0.200000 -3.356267
v 25.000000 -0.200000 25.000000
v 3.356267 0.200000 3.356267
v 25.000000 -0.200000 -25.000000
v 3.356267 0.200000 -3.356267
v -25.000000 0.200000 25.000000
v -25.000000 0.200000 -25.000000
v 25.000000 0.200000 -25.000000
v 25.000000 0.200000 25.000000
v -25.000000 6.200000 25.000000
v -25.000000 6.200000 -25.000000
v 25.000000 6.200000 -25.000000
v 25.000000 6.200000 25.000000
v -22.500000 6.200000 22.500000
v -22.500000 6.200000 -22.500000
v 22.500000 6.200000 -22.500000
v 22.500000 6.200000 22.500000
v -22.500000 0.200000 22.500000
v -22.500000 0.200000 -22.500000
v 22.500000 0.200000 -22.500000
v 22.500000 0.200000 22.500000
v -3.356267 1.200000 3.356267
v -3.356267 1.200000 -3.356267
v 3.356267 1.200000 -3.356267
v 3.356267 1.200000 3.356267
v -0.138200 1.374784 -11.077504
v 1.491195 2.619517 -9.893695
v -0.760561 2.619516 -9.162042
v -2.152239 2.619525 -11.077504
v -0.760561 2.619516 -12.992970
v 1.491195 2.619517 -12.261316
v 0.484162 4.633586 -9.162042
v -1.767594 4.633586 -9.893695
v -1.767594 4.633586 -12.261316
v 0.484162 4.633586 -12.992970
v 1.875840 4.633577 -11.077504
v -0.138200 5.878318 -11.077504
v -0.504011 1.711076 -9.951632
v 0.819528 1.711076 -10.381684
v 0.453719 2.442712 -9.255799
v 1.777261 2.442716 -11.077504
v 0.819528 1.711076 -11.773328
v -1.322020 1.711082 -11.077504
v -1.687841 2.442715 -9.951631
v -0.504011 1.711076 -12.203379
v -1.687841 2.442715 -12.203381
v 0.453719 2.442712 -12.899213
v 2.003361 3.626551 -10.381681
v 2.003361 3.626551 -11.773330
v -0.138200 3.626551 -8.825740
v 1.185356 3.626551 -9.255789
v -2.279760 3.626551 -10.381681
v -1.461756 3.626551 -9.255789
v -1.461756 3.626551 -12.899223
v -2.279760 3.626551 -11.773330
v 1.185356 3.626551 -12.899223
v -0.138200 3.626551 -13.329272
v 1.411442 4.810387 -9.951631
v -0.730119 4.810390 -9.255799
v -2.053660 4.810386 -11.077504
v -0.730119 4.810390 -12.899213
v 1.411442 4.810387 -12.203381
v 0.227612 5.542027 -9.951632
v 1.045621 5.542020 -11.077504
v -1.095927 5.542027 -10.381684
v -1.095927 5.542027 -11.773328
v 0.227612 5.542027 -12.203379
v -12.175837 0.199982 13.853412
v -12.175837 2.487548 13.853412
v -11.952696 0.199982 13.875389
v -11.952696 2.487548 13.875389
v -11.738130 0.199982 13.940476
v -11.738130 2.487548 13.940476
v -11.540385 0.199982 14.046175
v -11.540385 2.487548 14.046175
v -11.367062 0.199982 14.188418
v -11.367062 2.487548 14.188418
v -11.224817 0.199982 14.361744
v -11.224817 2.487548 14.361744
v -11.119120 0.199982 14.559488
v -11.119120 2.487548 14.559488
v -11.054031 0.199982 14.774054
v -11.054031 2.487548 14.774054
v -11.032055 0.199982 14.997195
v -11.032055 2.487548 14.997195
v -11.054031 0.199982 15.220335
v -11.054031 2.487548 15.220335
v -11.119120 0.199982 15.434900
v -11.119120 2.487548 15.434900
v -11.224817 0.199982 15.632647
v -11.224817 2.487548 15.632647
v -11.367062 0.199982 15.805970
v -11.367062 2.487548 15.805970
v -11.540385 0.199982 15.948215
v -11.540385 2.487548 15.948215
v -11.738130 0.199982 16.053911
v -11.738130 2.487548 16.053911
v -11.952696 0.199982 16.118999
v -11.952696 2.487548 16.118999
v -12.175837 0.199982 16.140978
v -12.175837 2.487548 16.140978
v -12.398977 0.199982 16.118999
v -12.398977 2.487548 16.118999
v -12.613544 0.199982 16.053911
v -12.613544 2.487548 16.053911
v -12.811288 0.199982 15.948215
v -12.811288 2.487548 15.948215
v -12.984614 0.199982 15.805970
v -12.984614 2.487548 15.805970
v -13.126859 0.199982 15.632645
v -13.126859 2.487548 15.632645
v -13.232555 0.199982 15.434899
v -13.232555 2.487548 15.434899
v -13.297642 0.199982 15.220335
v -13.297642 2.487548 15.220335
v -13.319618 0.199982 14.997192
v -13.319618 2.487548 14.997192
v -13.297642 0.199982 14.774052
v -13.297642 2.487548 14.774052
v -13.232554 0.199982 14.559487
v -13.232554 2.487548 14.559487
v -13.126858 0.199982 14.361742
v -13.126858 2.487548 14.361742
v -12.984611 0.199982 14.188417
v -12.984611 2.487548 14.188417
v -12.811288 0.199982 14.046173
v -12.811288 2.487548 14.046173
v -12.613543 0.199982 13.940476
v -12.613543 2.487548 13.940476
v -12.398975 0.199982 13.875389
v -12.398975 2.487548 13.875389
v -1.704697 0.325285 14.047798
v -3.836613 2.980040 15.423812
v -1.089616 2.368429 11.058914
v -3.221531 5.023185 12.434929
v 1.221531 1.829957 15.678551
v -0.910384 4.484712 17.054565
v 1.836612 3.873101 12.689667
v -0.295303 6.527857 14.065681
v 0.000000 1.200000 3.356267
vt 0.523474 0.348983
vt 0.515719 0.736741
vt 0.515719 0.348982
vt 0.756108 0.736391
vt 0.763862 0.348982
vt 0.763862 0.736386
vt 0.507611 0.770291
vt 0.515719 0.384129
vt 0.515366 0.770291
vt 0.507964 0.384129
vt 0.511835 0.348982
vt 0.000000 0.000000
vt 0.387758 0.387758
vt 0.000000 0.387758
vt 0.502478 0.826852
vt 0.483139 0.775009
vt 0.502526 0.775009
vt 0.391643 0.384129
vt 0.880184 0.696528
vt 0.764181 0.348982
vt 0.880502 0.348982
vt 0.883680 0.348982
vt 1.000000 0.697965
vt 0.883680 0.697965
vt 0.639794 0.349062
vt 0.756108 0.348987
vt 0.368370 0.756129
vt 0.000000 0.775517
vt 0.019388 0.756129
vt 0.368370 0.407146
vt 0.387758 0.775517
vt 0.019388 0.407146
vt 0.387758 0.387758
vt 0.000000 0.387758
vt 0.736741 0.000075
vt 0.853055 0.348663
vt 0.736741 0.348738
vt 0.883680 0.728160
vt 0.763862 0.696528
vt 0.639794 0.736741
vt 0.523474 0.736741
vt 0.387758 0.348982
vt 0.504080 0.348982
vt 0.536221 0.200520
vt 0.387758 0.000000
vt 0.536221 0.148463
vt 0.588278 0.200520
vt 0.387758 0.348982
vt 0.588278 0.148463
vt 0.736741 0.348982
vt 0.736741 0.000000
vt 0.159689 0.827574
vt 0.140302 0.775517
vt 0.159689 0.775517
vt 0.482878 0.772650
vt 0.179074 0.827526
vt 0.159689 0.775529
vt 0.179074 0.775517
vt 0.515719 0.762769
vt 0.567776 0.736741
vt 0.567776 0.788798
vt 0.329318 0.782944
vt 0.338049 0.785781
vt 0.329318 0.792125
vt 0.590791 0.793498
vt 0.587511 0.811058
vt 0.581450 0.796948
vt 0.320586 0.785781
vt 0.323921 0.775517
vt 0.334714 0.775517
vt 0.586645 0.774015
vt 0.329317 0.798563
vt 0.338049 0.794962
vt 0.334714 0.799552
vt 0.614293 0.754280
vt 0.623025 0.750893
vt 0.619689 0.773792
vt 0.425648 0.827115
vt 0.418679 0.830348
vt 0.420522 0.807504
vt 0.443337 0.827290
vt 0.435038 0.830670
vt 0.441030 0.807807
vt 0.595915 0.773951
vt 0.629150 0.754402
vt 0.631759 0.773979
vt 0.628422 0.773863
vt 0.608897 0.773792
vt 0.430633 0.807704
vt 0.572506 0.793498
vt 0.567776 0.773951
vt 0.575897 0.774015
vt 0.597114 0.754373
vt 0.590361 0.751018
vt 0.591180 0.736741
vt 0.623475 0.793360
vt 0.628423 0.796878
vt 0.619691 0.811030
vt 0.605113 0.793360
vt 0.614294 0.796762
vt 0.608899 0.811030
vt 0.435841 0.788217
vt 0.426514 0.784641
vt 0.434365 0.770490
vt 0.581342 0.754482
vt 0.572970 0.751018
vt 0.581910 0.736805
vt 0.338049 0.785781
vt 0.341384 0.775517
vt 0.346780 0.782944
vt 0.573789 0.736741
vt 0.443337 0.784807
vt 0.352177 0.775517
vt 0.424255 0.770291
vt 0.418640 0.787878
vt 0.355512 0.785781
vt 0.346780 0.792125
vt 0.355512 0.794962
vt 0.346780 0.798563
vt 0.352176 0.799552
vt 0.600167 0.773863
vt 0.605563 0.750893
vt 0.600167 0.773848
vt 0.596450 0.796845
vt 0.438047 0.844768
vt 0.427650 0.844665
vt 0.605565 0.736813
vt 0.614295 0.736741
vt 0.623027 0.736813
vt 0.576763 0.811058
vt 0.508903 0.814637
vt 0.507167 0.770292
vt 0.508903 0.770291
vt 0.507167 0.814638
vt 0.505483 0.770299
vt 0.505483 0.814645
vt 0.503916 0.770310
vt 0.503916 0.814656
vt 0.502526 0.770326
vt 0.194723 0.819897
vt 0.193484 0.775536
vt 0.194723 0.775548
vt 0.193484 0.819885
vt 0.192031 0.775527
vt 0.192031 0.819875
vt 0.190420 0.775520
vt 0.190420 0.819869
vt 0.188712 0.775517
vt 0.188712 0.819866
vt 0.186973 0.775517
vt 0.186973 0.819866
vt 0.185270 0.775520
vt 0.185270 0.819869
vt 0.183669 0.775527
vt 0.183669 0.819876
vt 0.182230 0.775537
vt 0.182230 0.819886
vt 0.181010 0.775549
vt 0.181010 0.819898
vt 0.180054 0.775564
vt 0.180054 0.819913
vt 0.179401 0.775580
vt 0.179401 0.819929
vt 0.179074 0.775597
vt 0.209866 0.819965
vt 0.209696 0.775597
vt 0.209866 0.775617
vt 0.209696 0.819946
vt 0.209191 0.775579
vt 0.209191 0.819927
vt 0.208371 0.775561
vt 0.208371 0.819910
vt 0.207267 0.775546
vt 0.207267 0.819894
vt 0.205923 0.775534
vt 0.205923 0.819882
vt 0.204389 0.775524
vt 0.204389 0.819873
vt 0.202725 0.775519
vt 0.202725 0.819867
vt 0.200995 0.775517
vt 0.200995 0.819865
vt 0.199264 0.775519
vt 0.199264 0.819867
vt 0.197600 0.775524
vt 0.197600 0.819873
vt 0.196067 0.775534
vt 0.196067 0.819882
vt 0.194723 0.775546
vt 0.515059 0.814680
vt 0.513763 0.770317
vt 0.515059 0.770334
vt 0.513763 0.814663
vt 0.512266 0.770303
vt 0.372827 0.786919
vt 0.361764 0.792832
vt 0.355851 0.781769
vt 0.512266 0.814649
vt 0.510625 0.770295
vt 0.510625 0.814641
vt 0.533035 0.795050
vt 0.532369 0.801807
vt 0.520365 0.805448
vt 0.843635 0.780386
vt 0.814343 0.759831
vt 0.847620 0.728160
vt 0.418640 0.824367
vt 0.387758 0.791416
vt 0.418640 0.770291
vt 0.720634 0.798906
vt 0.689585 0.820149
vt 0.687276 0.767171
vt 0.248695 0.775517
vt 0.266064 0.810744
vt 0.248695 0.801496
vt 0.722942 0.768202
vt 0.689585 0.736466
vt 0.810357 0.812057
vt 0.847620 0.812168
vt 0.814343 0.843840
vt 0.387758 0.000000
vt 0.483091 0.826852
vt 0.391289 0.770291
vt 1.000000 0.348983
vt 0.639794 0.736466
vt 0.853055 0.000000
vt 0.767358 0.728160
vt 0.639794 0.348983
vt 0.140302 0.827574
vt 0.482617 0.770291
vt 0.502004 0.770291
vt 0.159689 0.827538
vt 0.515719 0.788798
vt 0.515719 0.736741
vt 0.502526 0.814672
vt 0.179074 0.819946
vt 0.194723 0.819894
vt 0.372162 0.788526
vt 0.371196 0.789971
vt 0.369966 0.791201
vt 0.368521 0.792167
vt 0.366914 0.792832
vt 0.365209 0.793172
vt 0.363470 0.793172
vt 0.360158 0.792167
vt 0.358712 0.791201
vt 0.357482 0.789971
vt 0.356516 0.788526
vt 0.355851 0.786919
vt 0.355512 0.785214
vt 0.355512 0.783475
vt 0.356516 0.780163
vt 0.357482 0.778717
vt 0.358712 0.777487
vt 0.360158 0.776521
vt 0.361764 0.775856
vt 0.363470 0.775517
vt 0.365209 0.775517
vt 0.366914 0.775856
vt 0.368520 0.776521
vt 0.369966 0.777487
vt 0.371196 0.778717
vt 0.372162 0.780163
vt 0.372827 0.781769
vt 0.373167 0.783475
vt 0.373167 0.785214
vt 0.518919 0.804482
vt 0.516058 0.800200
vt 0.517690 0.803253
vt 0.516724 0.801807
vt 0.515719 0.798495
vt 0.515719 0.796756
vt 0.516058 0.795050
vt 0.516724 0.793444
vt 0.517690 0.791998
vt 0.518919 0.790769
vt 0.520365 0.789802
vt 0.521972 0.789137
vt 0.523677 0.788798
vt 0.528728 0.789802
vt 0.525416 0.788798
vt 0.527121 0.789137
vt 0.530174 0.790769
vt 0.531403 0.791998
vt 0.532369 0.793444
vt 0.533374 0.796756
vt 0.533374 0.798495
vt 0.533035 0.800200
vt 0.531403 0.803253
vt 0.530174 0.804482
vt 0.528728 0.805448
vt 0.527121 0.806114
vt 0.525416 0.806453
vt 0.523677 0.806453
vt 0.521972 0.806114
vt 0.387758 0.845492
vt 0.722942 0.851885
vt 0.266064 0.784764
vn -1.0000 0.0000 0.0000
vn 0.0000 0.0000 -1.0000
vn 1.0000 0.0000 0.0000
vn 0.0000 0.0000 1.0000
vn 0.0000 -1.0000 0.0000
vn 0.0000 1.0000 0.0000
vn 0.1024 -0.9435 0.3151
vn 0.7002 -0.6617 0.2680
vn -0.2680 -0.9435 0.1947
vn -0.2680 -0.9435 -0.1947
vn 0.1024 -0.9435 -0.3151
vn 0.9050 -0.3304 0.2680
vn 0.0247 -0.3304 0.9435
vn -0.8897 -0.3304 0.3151
vn -0.5746 -0.3304 -0.7488
vn 0.5346 -0.3304 -0.7779
vn 0.8026 -0.1256 0.5831
vn -0.3066 -0.1256 0.9435
vn -0.9921 -0.1256 0.0000
vn -0.3066 -0.1256 -0.9435
vn 0.8026 -0.1256 -0.5831
vn 0.4089 0.6617 0.6284
vn -0.4713 0.6617 0.5831
vn -0.7002 0.6617 -0.2680
vn 0.0385 0.6617 -0.7488
vn 0.7240 0.6617 -0.1947
vn 0.2680 0.9435 -0.1947
vn 0.4911 0.7947 -0.3568
vn 0.4089 0.6617 -0.6284
vn -0.1024 0.9435 -0.3151
vn -0.1876 0.7947 -0.5773
vn -0.4713 0.6617 -0.5831
vn -0.3313 0.9435 0.0000
vn -0.6071 0.7947 0.0000
vn -0.7002 0.6617 0.2680
vn -0.1024 0.9435 0.3151
vn -0.1876 0.7947 0.5773
vn 0.0385 0.6617 0.7488
vn 0.2680 0.9435 0.1947
vn 0.4911 0.7947 0.3568
vn 0.7240 0.6617 0.1947
vn 0.8897 0.3304 -0.3151
vn 0.7947 0.1876 -0.5773
vn 0.5746 0.3304 -0.7488
vn -0.0247 0.3304 -0.9435
vn -0.3035 0.1876 -0.9342
vn -0.5346 0.3304 -0.7779
vn -0.9050 0.3304 -0.2680
vn -0.9822 0.1876 0.0000
vn -0.9050 0.3304 0.2680
vn -0.5346 0.3304 0.7779
vn -0.3035 0.1876 0.9342
vn -0.0247 0.3304 0.9435
vn 0.5746 0.3304 0.7488
vn 0.7947 0.1876 0.5773
vn 0.8897 0.3304 0.3151
vn 0.3066 0.1256 -0.9435
vn 0.3035 -0.1876 -0.9342
vn 0.0247 -0.3304 -0.9435
vn -0.8026 0.1256 -0.5831
vn -0.7947 -0.1876 -0.5773
vn -0.8897 -0.3304 -0.3151
vn -0.8026 0.1256 0.5831
vn -0.7947 -0.1876 0.5773
vn -0.5746 -0.3304 0.7488
vn 0.3066 0.1256 0.9435
vn 0.3035 -0.1876 0.9342
vn 0.5346 -0.3304 0.7779
vn 0.9921 0.1256 0.0000
vn 0.9822 -0.1876 0.0000
vn 0.9050 -0.3304 -0.2680
vn 0.4713 -0.6617 -0.5831
vn 0.1876 -0.7947 -0.5773
vn -0.0385 -0.6617 -0.7488
vn -0.4089 -0.6617 -0.6284
vn -0.4911 -0.7947 -0.3568
vn -0.7240 -0.6617 -0.1947
vn -0.7240 -0.6617 0.1947
vn -0.4911 -0.7947 0.3568
vn -0.4089 -0.6617 0.6284
vn 0.7002 -0.6617 -0.2680
vn 0.6071 -0.7947 0.0000
vn 0.3313 -0.9435 0.0000
vn -0.0385 -0.6617 0.7488
vn 0.1876 -0.7947 0.5773
vn 0.4713 -0.6617 0.5831
vn 0.0980 0.0000 -0.9952
vn 0.2903 0.0000 -0.9569
vn 0.4714 0.0000 -0.8819
vn 0.6344 0.0000 -0.7730
vn 0.7730 0.0000 -0.6344
vn 0.8819 0.0000 -0.4714
vn 0.9569 0.0000 -0.2903
vn 0.9952 0.0000 -0.0980
vn 0.9952 0.0000 0.0980
vn 0.9569 0.0000 0.2903
vn 0.8819 0.0000 0.4714
vn 0.7730 0.0000 0.6344
vn 0.6344 0.0000 0.7730
vn 0.4714 0.0000 0.8819
vn 0.2903 0.0000 0.9569
vn 0.0980 0.0000 0.9952
vn -0.0980 0.0000 0.9952
vn -0.2903 0.0000 0.9569
vn -0.4714 0.0000 0.8819
vn -0.6344 0.0000 0.7730
vn -0.7730 0.0000 0.6344
vn -0.8819 0.0000 0.4714
vn -0.9569 0.0000 0.2903
vn -0.9952 0.0000 0.0980
vn -0.9952 0.0000 -0.0980
vn -0.9569 0.0000 -0.2903
vn -0.8819 0.0000 -0.4714
vn -0.7730 0.0000 -0.6344
vn -0.6344 0.0000 -0.7730
vn -0.4714 0.0000 -0.8819
vn -0.2903 0.0000 -0.9569
vn -0.0980 0.0000 -0.9952
vn -0.7968 -0.4097 -0.4441
vn 0.1675 0.5564 -0.8139
vn 0.7968 0.4097 0.4441
vn -0.1675 -0.5564 0.8139
vn 0.5805 -0.7229 -0.3747
vn -0.5805 0.7229 0.3747
g Cube_Cube_t_concrete_placeholder
usemtl t_concrete_placeholder
s off
f 9/1/1 3/2/1 1/3/1
f 10/4/2 7/5/2 3/6/2
f 11/7/3 5/8/3 7/9/3
f 12/10/4 1/11/4 5/8/4
f 7/12/5 1/13/5 3/14/5
f 8/15/3 28/16/3 6/17/3
f 11/7/3 16/18/3 12/10/3
f 22/19/3 17/20/3 21/21/3
f 24/22/1 19/23/1 23/24/1
f 10/4/2 15/25/2 11/26/2
f 18/27/6 13/28/6 17/29/6
f 19/30/6 14/31/6 18/27/6
f 20/32/6 15/33/6 19/30/6
f 17/29/6 16/34/6 20/32/6
f 21/35/2 20/36/2 24/37/2
f 23/38/4 18/39/4 22/19/4
f 9/1/1 14/40/1 10/41/1
f 12/10/4 13/42/4 9/43/4
f 4/44/6 21/45/6 2/46/6
f 8/47/6 22/48/6 4/44/6
f 6/49/6 23/50/6 8/47/6
f 2/46/6 24/51/6 6/49/6
f 8/47/6 2/46/6 6/49/6
f 2/52/1 26/53/1 4/54/1
f 6/17/4 28/16/4 143/55/4
f 4/56/2 27/57/2 8/58/2
f 143/59/6 27/60/6 26/61/6
f 29/62/7 42/63/7 41/64/7
f 30/65/8 42/66/8 44/67/8
f 29/62/9 41/64/9 46/68/9
f 29/62/10 46/68/10 48/69/10
f 29/62/11 48/69/11 45/70/11
f 30/65/12 44/67/12 51/71/12
f 31/72/13 43/73/13 53/74/13
f 32/75/14 47/76/14 55/77/14
f 33/78/15 49/79/15 57/80/15
f 34/81/16 50/82/16 59/83/16
f 30/65/17 51/71/17 54/84/17
f 31/85/18 53/86/18 56/87/18
f 32/75/19 55/77/19 58/88/19
f 33/78/20 57/80/20 60/89/20
f 34/90/21 59/91/21 52/92/21
f 35/93/22 61/94/22 66/95/22
f 36/96/23 62/97/23 68/98/23
f 37/99/24 63/100/24 69/101/24
f 38/102/25 64/103/25 70/104/25
f 39/105/26 65/106/26 67/107/26
f 67/108/27 70/109/27 40/110/27
f 67/107/28 65/106/28 70/111/28
f 65/112/29 38/102/29 70/104/29
f 70/109/30 69/113/30 40/110/30
f 70/104/31 64/103/31 69/114/31
f 64/103/32 37/115/32 69/114/32
f 69/113/33 68/116/33 40/110/33
f 69/101/34 63/100/34 68/98/34
f 63/100/35 36/96/35 68/98/35
f 68/116/36 66/117/36 40/110/36
f 68/116/37 62/118/37 66/117/37
f 62/118/38 35/119/38 66/117/38
f 66/117/39 67/108/39 40/110/39
f 66/95/40 61/94/40 67/107/40
f 61/94/41 39/105/41 67/107/41
f 52/92/42 65/106/42 39/105/42
f 52/92/43 59/91/43 65/106/43
f 59/83/44 38/102/44 65/112/44
f 60/89/45 64/103/45 38/102/45
f 60/89/46 57/80/46 64/103/46
f 57/80/47 37/115/47 64/103/47
f 58/88/48 63/100/48 37/99/48
f 58/88/49 55/77/49 63/100/49
f 55/77/50 36/96/50 63/100/50
f 56/87/51 62/97/51 36/96/51
f 56/87/52 53/86/52 62/97/52
f 53/120/53 35/119/53 62/118/53
f 54/84/54 61/94/54 35/93/54
f 54/84/55 51/71/55 61/94/55
f 51/71/56 39/105/56 61/94/56
f 59/83/57 60/89/57 38/102/57
f 59/83/58 50/82/58 60/89/58
f 50/82/59 33/78/59 60/89/59
f 57/121/60 58/88/60 37/99/60
f 57/121/61 49/122/61 58/88/61
f 49/122/62 32/75/62 58/88/62
f 55/77/63 56/87/63 36/96/63
f 55/77/64 47/76/64 56/87/64
f 47/76/65 31/85/65 56/87/65
f 53/123/66 54/84/66 35/93/66
f 53/123/67 43/124/67 54/84/67
f 43/124/68 30/65/68 54/84/68
f 51/71/69 52/92/69 39/105/69
f 51/71/70 44/67/70 52/92/70
f 44/67/71 34/90/71 52/92/71
f 45/125/72 50/82/72 34/81/72
f 45/125/73 48/126/73 50/82/73
f 48/126/74 33/78/74 50/82/74
f 48/126/75 49/79/75 33/78/75
f 48/127/76 46/128/76 49/122/76
f 46/128/77 32/75/77 49/122/77
f 46/128/78 47/76/78 32/75/78
f 46/128/79 41/129/79 47/76/79
f 41/129/80 31/85/80 47/76/80
f 44/67/81 45/130/81 34/90/81
f 44/67/82 42/66/82 45/130/82
f 42/63/83 29/62/83 45/70/83
f 41/64/84 43/73/84 31/72/84
f 41/64/85 42/63/85 43/73/85
f 42/66/86 30/65/86 43/124/86
f 72/131/87 73/132/87 71/133/87
f 74/134/88 75/135/88 73/132/88
f 76/136/89 77/137/89 75/135/89
f 78/138/90 79/139/90 77/137/90
f 80/140/91 81/141/91 79/142/91
f 82/143/92 83/144/92 81/141/92
f 84/145/93 85/146/93 83/144/93
f 86/147/94 87/148/94 85/146/94
f 88/149/95 89/150/95 87/148/95
f 90/151/96 91/152/96 89/150/96
f 92/153/97 93/154/97 91/152/97
f 94/155/98 95/156/98 93/154/98
f 96/157/99 97/158/99 95/156/99
f 98/159/100 99/160/100 97/158/100
f 100/161/101 101/162/101 99/160/101
f 102/163/102 103/164/102 101/162/102
f 104/165/103 105/166/103 103/167/103
f 106/168/104 107/169/104 105/166/104
f 108/170/105 109/171/105 107/169/105
f 110/172/106 111/173/106 109/171/106
f 112/174/107 113/175/107 111/173/107
f 114/176/108 115/177/108 113/175/108
f 116/178/109 117/179/109 115/177/109
f 118/180/110 119/181/110 117/179/110
f 120/182/111 121/183/111 119/181/111
f 122/184/112 123/185/112 121/183/112
f 124/186/113 125/187/113 123/185/113
f 126/188/114 127/189/114 125/187/114
f 128/190/115 129/191/115 127/192/115
f 130/193/116 131/194/116 129/191/116
f 76/195/6 124/196/6 108/197/6
f 132/198/117 133/199/117 131/194/117
f 134/200/118 71/133/118 133/199/118
f 109/201/5 117/202/5 133/203/5
f 136/204/119 137/205/119 135/206/119
f 138/207/120 141/208/120 137/209/120
f 141/210/121 140/211/121 139/212/121
f 139/213/122 136/214/122 135/215/122
f 137/216/123 139/212/123 135/217/123
f 138/218/124 140/219/124 142/220/124
f 9/1/1 10/41/1 3/2/1
f 10/4/2 11/26/2 7/5/2
f 11/7/3 12/10/3 5/8/3
f 12/10/4 9/43/4 1/11/4
f 7/12/5 5/221/5 1/13/5
f 8/15/3 27/222/3 28/16/3
f 11/7/3 15/223/3 16/18/3
f 22/19/3 18/39/3 17/20/3
f 24/22/1 20/224/1 19/23/1
f 10/4/2 14/225/2 15/25/2
f 18/27/6 14/31/6 13/28/6
f 19/30/6 15/33/6 14/31/6
f 20/32/6 16/34/6 15/33/6
f 17/29/6 13/28/6 16/34/6
f 21/35/2 17/226/2 20/36/2
f 23/38/4 19/227/4 18/39/4
f 9/1/1 13/228/1 14/40/1
f 12/10/4 16/18/4 13/42/4
f 4/44/6 22/48/6 21/45/6
f 8/47/6 23/50/6 22/48/6
f 6/49/6 24/51/6 23/50/6
f 2/46/6 21/45/6 24/51/6
f 8/47/6 4/44/6 2/46/6
f 2/52/1 25/229/1 26/53/1
f 25/230/4 2/231/4 143/55/4
f 2/231/4 6/17/4 143/55/4
f 4/56/2 26/232/2 27/57/2
f 26/61/6 25/233/6 143/59/6
f 143/59/6 28/234/6 27/60/6
f 72/131/87 74/134/87 73/132/87
f 74/134/88 76/136/88 75/135/88
f 76/136/89 78/138/89 77/137/89
f 78/138/90 80/235/90 79/139/90
f 80/140/91 82/143/91 81/141/91
f 82/143/92 84/145/92 83/144/92
f 84/145/93 86/147/93 85/146/93
f 86/147/94 88/149/94 87/148/94
f 88/149/95 90/151/95 89/150/95
f 90/151/96 92/153/96 91/152/96
f 92/153/97 94/155/97 93/154/97
f 94/155/98 96/157/98 95/156/98
f 96/157/99 98/159/99 97/158/99
f 98/159/100 100/161/100 99/160/100
f 100/161/101 102/163/101 101/162/101
f 102/163/102 104/236/102 103/164/102
f 104/165/103 106/168/103 105/166/103
f 106/168/104 108/170/104 107/169/104
f 108/170/105 110/172/105 109/171/105
f 110/172/106 112/174/106 111/173/106
f 112/174/107 114/176/107 113/175/107
f 114/176/108 116/178/108 115/177/108
f 116/178/109 118/180/109 117/179/109
f 118/180/110 120/182/110 119/181/110
f 120/182/111 122/184/111 121/183/111
f 122/184/112 124/186/112 123/185/112
f 124/186/113 126/188/113 125/187/113
f 126/188/114 128/237/114 127/189/114
f 128/190/115 130/193/115 129/191/115
f 130/193/116 132/198/116 131/194/116
f 76/195/6 74/238/6 72/239/6
f 72/239/6 134/240/6 76/195/6
f 134/240/6 132/241/6 76/195/6
f 132/241/6 130/242/6 128/243/6
f 128/243/6 126/244/6 124/196/6
f 124/196/6 122/245/6 120/246/6
f 120/246/6 118/247/6 116/248/6
f 116/248/6 114/249/6 112/250/6
f 112/250/6 110/251/6 116/248/6
f 110/251/6 108/197/6 116/248/6
f 108/197/6 106/252/6 104/253/6
f 104/253/6 102/254/6 108/197/6
f 102/254/6 100/255/6 108/197/6
f 100/255/6 98/256/6 96/257/6
f 96/257/6 94/258/6 92/259/6
f 92/259/6 90/260/6 88/261/6
f 88/261/6 86/262/6 84/263/6
f 84/263/6 82/264/6 80/265/6
f 80/265/6 78/266/6 84/263/6
f 78/266/6 76/195/6 84/263/6
f 132/241/6 128/243/6 76/195/6
f 128/243/6 124/196/6 76/195/6
f 124/196/6 120/246/6 108/197/6
f 120/246/6 116/248/6 108/197/6
f 100/255/6 96/257/6 108/197/6
f 96/257/6 92/259/6 108/197/6
f 92/259/6 88/261/6 84/263/6
f 92/259/6 84/263/6 108/197/6
f 84/263/6 76/195/6 108/197/6
f 132/198/117 134/200/117 133/199/117
f 134/200/118 72/131/118 71/133/118
f 133/203/5 71/267/5 77/268/5
f 71/267/5 73/269/5 77/268/5
f 73/269/5 75/270/5 77/268/5
f 77/268/5 79/271/5 81/272/5
f 81/272/5 83/273/5 77/268/5
f 83/273/5 85/274/5 77/268/5
f 85/274/5 87/275/5 89/276/5
f 89/276/5 91/277/5 85/274/5
f 91/277/5 93/278/5 85/274/5
f 93/278/5 95/279/5 101/280/5
f 95/279/5 97/281/5 101/280/5
f 97/281/5 99/282/5 101/280/5
f 101/280/5 103/283/5 105/284/5
f 105/284/5 107/285/5 101/280/5
f 107/285/5 109/201/5 101/280/5
f 109/201/5 111/286/5 113/287/5
f 113/287/5 115/288/5 117/202/5
f 117/202/5 119/289/5 121/290/5
f 121/290/5 123/291/5 125/292/5
f 125/292/5 127/293/5 133/203/5
f 127/293/5 129/294/5 133/203/5
f 129/294/5 131/295/5 133/203/5
f 109/201/5 113/287/5 117/202/5
f 117/202/5 121/290/5 133/203/5
f 121/290/5 125/292/5 133/203/5
f 133/203/5 77/268/5 101/280/5
f 77/268/5 85/274/5 101/280/5
f 85/274/5 93/278/5 101/280/5
f 101/280/5 109/201/5 133/203/5
f 136/204/119 138/218/119 137/205/119
f 138/207/120 142/296/120 141/208/120
f 141/210/121 142/297/121 140/211/121
f 139/213/122 140/298/122 136/214/122
f 137/216/123 141/210/123 139/212/123
f 138/218/124 136/204/124 140/219/124
